<svg xmlns="http://www.w3.org/2000/svg" viewBox="0 0 114.19 26.92">
    <g data-name="레이어 2">
        <path d="M37 24.32a1 1 0 0 1-.32-.75V3.73A1 1 0 0 1 37 3a1 1 0 0 1 .76-.31h13.72a1 1 0 0 1 .75.3 1 1 0 0 1 .29.74 1 1 0 0 1-.31.73 1 1 0 0 1-.73.31H39.15a.34.34 0 0 0-.34.34v6.61a.34.34 0 0 0 .34.34h9.48a1 1 0 0 1 .73.31 1 1 0 0 1 .31.76 1 1 0 0 1-.31.73 1 1 0 0 1-.73.31h-9.48a.35.35 0 0 0-.34.35v9.05a1.07 1.07 0 0 1-.31.77 1 1 0 0 1-1.48 0Zm21.31-.02a1 1 0 0 1-.31-.73v-20a1 1 0 0 1 .31-.7 1 1 0 0 1 .69-.34 1 1 0 0 1 .73.31 1 1 0 0 1 .31.7v18.6a.34.34 0 0 0 .36.34l9.65-.66a.93.93 0 0 1 .75.26 1 1 0 0 1 .29.75.9.9 0 0 1-.29.68 1.06 1.06 0 0 1-.68.32L59 24.61a.82.82 0 0 1-.69-.31Zm32.07.15a1 1 0 0 1-.38-.52l-2.56-7.43a.34.34 0 0 0-.4-.22L79.45 18a.35.35 0 0 0-.25.21L76.9 24a.83.83 0 0 1-.35.47 1 1 0 0 1-.59.18.91.91 0 0 1-.69-.29 1 1 0 0 1-.28-.75 1.67 1.67 0 0 1 .13-.55l1.56-4a.34.34 0 0 0-.33-.47h-.06a1 1 0 0 1-.62-.31 1 1 0 0 1-.26-.7 1 1 0 0 1 .23-.64.87.87 0 0 1 .55-.36l1.44-.32a.33.33 0 0 0 .25-.21L83 2.92a1.16 1.16 0 0 1 1-.65 1 1 0 0 1 .59.18A1.15 1.15 0 0 1 85 3l6.84 19.91a3.1 3.1 0 0 1 .19.78 1 1 0 0 1-1 1 1 1 0 0 1-.65-.24ZM86.51 13.9l-2.33-6.82a.35.35 0 0 0-.65 0l-3.15 8a.34.34 0 0 0 .39.46l5.48-1.18a.35.35 0 0 0 .26-.46Zm12.04 10.4a1 1 0 0 1-.31-.73v-20a1 1 0 0 1 .29-.7 1 1 0 0 1 .72-.31 1.12 1.12 0 0 1 .86.41l11.33 16.45a.34.34 0 0 0 .62-.19V3.54a1 1 0 0 1 .31-.73 1 1 0 0 1 .73-.31 1 1 0 0 1 .73.31 1 1 0 0 1 .31.73v20a1 1 0 0 1-.29.73 1 1 0 0 1-.75.31 1 1 0 0 1-.45-.13.9.9 0 0 1-.39-.32L101 7.75a.35.35 0 0 0-.63.19v15.63a1 1 0 0 1-1.76.73Zm-83.89 2.62a38.87 38.87 0 0 1-12-2C.19 24.18-.46 23 .29 20.48s1.71-5.26 2.5-7.89c.16-.49.31-.92-.2-1.34s-.32-.95-.26-1.44A5.68 5.68 0 0 1 6.58 5.6c1.21-.18 2.42-.49 3.62-.78a1.23 1.23 0 0 0 1.05-1.09 2.06 2.06 0 0 1 2.21-1.86 2.12 2.12 0 0 0 2.1-.94.94.94 0 0 1 .53-.42c.45-.08.85-1 1.35-.16s-.47.66-.74 1-1.24.69-.92 1.49.46 1.65 1.8 1.64a9.42 9.42 0 0 1 5 1.36 3.8 3.8 0 0 1 1.88 4.84 2.09 2.09 0 0 0 .18 1.19c.9 3.19 1.83 6.36 2.74 9.54.54 1.9.31 2.41-1.45 3.3-3.55 1.77-7.38 2.16-11.27 2.21Zm-4.19-13.17a.5.5 0 0 0 1 0c0-.16.06-.32.1-.48a4.16 4.16 0 0 1 .7-1.78c.85-1.07 1.68-1.05 2.4.11a11.07 11.07 0 0 1 1 3.13 7.16 7.16 0 0 0 1.23 2.87c.38.49 1 1.11 1.61.74.47-.27.2-1 0-1.52s-.47-1.3-.74-1.93a5.93 5.93 0 0 1-.45-2.69 2 2 0 0 1 1.4-1.87 1.67 1.67 0 0 1 1.91.72l.48.59a.5.5 0 0 0 .89-.32v-1.11c0-.92.52-1.13 1.16-1.11a.5.5 0 0 0 .47-.68 4 4 0 0 0-2.81-2.34c-1.09-.33-2.26-.4-3.39-.63a1.72 1.72 0 0 0-1.8.62 2.48 2.48 0 0 1-3.85 0 1.16 1.16 0 0 0-1.34-.27c-1.32.32-2.65.63-4 .84a2.78 2.78 0 0 0-1 .34.5.5 0 0 0 .38.92c.35-.09.73-.35 1-.08s0 .66-.08 1c-.21.66-.53 1.29-.77 2a.5.5 0 0 0 .88.46 1.75 1.75 0 0 1 .28-.33 2.34 2.34 0 0 1 2.28-.66c.87.27.78 1.13.84 1.86a7.7 7.7 0 0 0 .22 1.6Zm2.79-7.87h.08c1.18 0 1.69-.56 1.72-1.45a1.43 1.43 0 0 0-1.49-1.63 1.43 1.43 0 0 0-1.51 1.61 1.38 1.38 0 0 0 1.2 1.47Z" style="fill:#2b3333" data-name="레이어 1"/>
    </g>
</svg>
