<svg width="122" height="99" viewBox="0 0 122 99" fill="none" xmlns="http://www.w3.org/2000/svg">
<path d="M0.511178 98.4528C0.352928 98.3075 0.226054 98.132 0.138206 97.9369C0.0503577 97.7417 0.00335632 97.531 3.56767e-05 97.3174V66.3777C-0.00140433 66.1659 0.0407619 65.9559 0.123965 65.7607C0.207167 65.5656 0.329664 65.3892 0.48399 65.2423C0.640629 65.0855 0.82807 64.9622 1.03475 64.8798C1.24144 64.7974 1.46298 64.7578 1.68572 64.7634H23.2788C23.4951 64.7579 23.7103 64.7951 23.9119 64.8727C24.1136 64.9503 24.2976 65.0668 24.4533 65.2154C24.7546 65.5235 24.9231 65.9355 24.9231 66.3642C24.9231 66.793 24.7546 67.205 24.4533 67.513C24.3055 67.6665 24.1274 67.7883 23.93 67.8706C23.7326 67.953 23.5202 67.9943 23.306 67.9919H3.86079C3.71658 67.9919 3.57827 68.0486 3.47629 68.1495C3.37431 68.2505 3.31702 68.3873 3.31702 68.53V78.8235C3.31702 78.9662 3.37431 79.1031 3.47629 79.204C3.57827 79.3049 3.71658 79.3616 3.86079 79.3616H18.7872C19.0015 79.3592 19.2139 79.4005 19.4113 79.4829C19.6087 79.5653 19.7868 79.687 19.9346 79.8405C20.0924 79.9949 20.2167 80.1795 20.2999 80.383C20.3831 80.5866 20.4235 80.8048 20.4186 81.0243C20.4186 81.4524 20.2467 81.863 19.9408 82.1657C19.6348 82.4685 19.2199 82.6385 18.7872 82.6385H3.86079C3.71658 82.6385 3.57827 82.6952 3.47629 82.7962C3.37431 82.8971 3.31702 83.0339 3.31702 83.1766V97.3174C3.3227 97.5378 3.28269 97.7571 3.19946 97.9616C3.11622 98.1661 2.99153 98.3516 2.83307 98.5066C2.68327 98.6621 2.50313 98.7858 2.30358 98.8704C2.10403 98.9549 1.8892 98.9985 1.67212 98.9985C1.45504 98.9985 1.24022 98.9549 1.04067 98.8704C0.841115 98.7858 0.660982 98.6621 0.511178 98.5066V98.4528Z" fill="#2B3333"/>
<path d="M34.0236 98.4259C33.7199 98.1237 33.5464 97.7167 33.5397 97.2905V66.0817C33.5419 65.8792 33.586 65.6792 33.6692 65.4942C33.7525 65.3091 33.8731 65.1428 34.0236 65.0056C34.1731 64.8543 34.3515 64.734 34.5485 64.652C34.7456 64.5699 34.9572 64.5276 35.171 64.5276C35.3848 64.5276 35.5964 64.5699 35.7934 64.652C35.9905 64.734 36.1689 64.8543 36.3183 65.0056C36.4689 65.1428 36.5895 65.3091 36.6728 65.4942C36.756 65.6792 36.8001 65.8792 36.8023 66.0817V95.0575C36.8021 95.1314 36.8173 95.2046 36.847 95.2725C36.8767 95.3404 36.9202 95.4015 36.9748 95.4519C37.0294 95.5024 37.0939 95.5412 37.1643 95.566C37.2348 95.5907 37.3096 95.6008 37.3841 95.5956L52.577 94.5732C52.7908 94.5495 53.0073 94.5734 53.2105 94.6432C53.4138 94.713 53.5987 94.827 53.7516 94.9768C53.9048 95.129 54.0249 95.3106 54.1044 95.5105C54.1839 95.7104 54.2211 95.9243 54.2138 96.139C54.2173 96.3405 54.1779 96.5404 54.0983 96.7258C54.0187 96.9112 53.9006 97.0779 53.7516 97.2152C53.4673 97.5146 53.0784 97.6955 52.664 97.721L35.1221 98.9317C34.9112 98.942 34.701 98.9013 34.5096 98.8132C34.3183 98.7251 34.1515 98.5921 34.0236 98.4259Z" fill="#2B3333"/>
<path d="M84.5071 98.6573C84.2237 98.4604 84.0165 98.1738 83.9199 97.8448L79.8905 86.276C79.8471 86.1524 79.7596 86.0488 79.6445 85.9844C79.5294 85.92 79.3946 85.8993 79.2652 85.9262L67.3023 88.5413C67.2158 88.5607 67.1353 88.6008 67.068 88.658C67.0008 88.7152 66.9486 88.7878 66.9162 88.8696L63.2947 97.8986C63.1993 98.1948 63.0083 98.4519 62.7509 98.6304C62.4809 98.8147 62.1601 98.9124 61.832 98.9102C61.6284 98.914 61.4263 98.8752 61.2389 98.7964C61.0514 98.7176 60.883 98.6005 60.7444 98.4528C60.5981 98.297 60.4844 98.1141 60.4097 97.9146C60.3351 97.7152 60.301 97.5031 60.3094 97.2905C60.3294 96.9965 60.3974 96.7076 60.5106 96.435L62.9739 90.1878C63.0059 90.1037 63.016 90.013 63.0035 89.9239C62.9909 89.8349 62.956 89.7504 62.9019 89.6781C62.8478 89.6059 62.7763 89.5482 62.6939 89.5104C62.6115 89.4725 62.5208 89.4557 62.4301 89.4614H62.3377C61.9631 89.43 61.614 89.2611 61.3589 88.9879C61.0856 88.696 60.9392 88.3095 60.9511 87.9118C60.9507 87.5439 61.0774 87.187 61.31 86.9002C61.5224 86.6227 61.8298 86.4314 62.1745 86.3621L64.4475 85.867C64.534 85.8476 64.6145 85.8076 64.6817 85.7504C64.749 85.6932 64.8012 85.6205 64.8336 85.5388L72.8977 65.1455C73.0365 64.8392 73.2684 64.5834 73.5611 64.4137C73.8356 64.2393 74.1539 64.1442 74.48 64.1393C74.8072 64.1375 75.1274 64.2331 75.399 64.4137C75.677 64.6093 75.8892 64.883 76.008 65.1993L86.7801 96.2144C86.935 96.6029 87.0374 97.01 87.0846 97.425C87.0799 97.829 86.916 98.2151 86.6278 98.5012C86.4773 98.6586 86.2949 98.7827 86.0924 98.8652C85.89 98.9478 85.6721 98.9869 85.4533 98.9801C85.1115 98.9733 84.7805 98.8603 84.5071 98.6573ZM78.4169 82.2511L74.7519 71.624C74.7128 71.5219 74.6432 71.434 74.5524 71.372C74.4616 71.31 74.3538 71.2767 74.2435 71.2767C74.1332 71.2767 74.0254 71.31 73.9346 71.372C73.8438 71.434 73.7742 71.5219 73.7351 71.624L68.7759 84.0914C68.7409 84.1813 68.7309 84.2789 68.747 84.374C68.7632 84.469 68.8048 84.5581 68.8676 84.6317C68.9304 84.7054 69.012 84.7611 69.104 84.7928C69.196 84.8246 69.2949 84.8314 69.3904 84.8124L78.02 82.9722C78.0973 82.9563 78.1702 82.924 78.2336 82.8775C78.2971 82.8309 78.3495 82.7713 78.3873 82.7027C78.4251 82.634 78.4473 82.5581 78.4524 82.4801C78.4575 82.4021 78.4454 82.324 78.4169 82.2511Z" fill="#2B3333"/>
<path d="M97.3727 98.4259C97.2168 98.2803 97.0933 98.1041 97.01 97.9086C96.9266 97.7132 96.8853 97.5027 96.8887 97.2905L96.9377 66.0817C96.9393 65.8811 96.9809 65.6827 97.0602 65.498C97.1395 65.3133 97.255 65.146 97.3999 65.0056C97.541 64.851 97.714 64.7282 97.9073 64.6455C98.1006 64.5629 98.3095 64.5224 98.52 64.5267C98.779 64.5246 99.0351 64.5801 99.2694 64.6891C99.5037 64.798 99.7104 64.9577 99.874 65.1562C99.8914 65.1717 99.9061 65.1899 99.9175 65.2101L117.748 90.8389C117.814 90.9324 117.908 91.0027 118.017 91.0398C118.126 91.0769 118.243 91.0788 118.354 91.0453C118.464 91.0118 118.56 90.9446 118.629 90.8533C118.698 90.7621 118.736 90.6515 118.737 90.5376V66.0764C118.737 65.6482 118.909 65.2377 119.215 64.9349C119.521 64.6322 119.936 64.4621 120.369 64.4621C120.801 64.4621 121.216 64.6322 121.522 64.9349C121.828 65.2377 122 65.6482 122 66.0764V97.2852C122.002 97.709 121.836 98.1168 121.538 98.4205C121.388 98.5797 121.206 98.7053 121.004 98.7889C120.801 98.8724 120.583 98.912 120.363 98.9048C120.113 98.8917 119.869 98.8217 119.651 98.7003C119.404 98.5887 119.192 98.4141 119.036 98.1945L101.185 72.6302C101.119 72.5368 101.024 72.4664 100.916 72.4294C100.807 72.3923 100.689 72.3903 100.579 72.4239C100.469 72.4574 100.372 72.5246 100.303 72.6158C100.234 72.7071 100.196 72.8176 100.195 72.9315L100.157 97.3174C100.155 97.636 100.059 97.9471 99.8792 98.2115C99.6995 98.4759 99.4447 98.6817 99.1471 98.8031C98.8494 98.9245 98.522 98.956 98.2063 98.8937C97.8905 98.8313 97.6005 98.6779 97.3727 98.4528V98.4259Z" fill="#2B3333"/>
<path d="M62.6259 52.4952C54.7032 52.5651 47.036 51.08 39.5157 48.7286C34.6218 47.2273 33.4037 44.9997 34.8556 40.1516C36.3727 35.1205 38.0638 30.1109 39.6951 25.0852C39.9942 24.1597 40.2933 23.3365 39.2982 22.524C38.4445 21.8298 38.6892 20.716 38.8034 19.769C39.2275 16.2284 43.4091 12.2681 47.0143 11.6978C49.3688 11.3426 51.6907 10.7561 54.0126 10.2019C54.528 10.1234 55.0028 9.87888 55.3635 9.50632C55.7243 9.13376 55.9509 8.6539 56.0082 8.14103C56.4106 5.91875 57.9603 4.48207 60.2931 4.57892C62.0712 4.65426 63.3654 4.25069 64.3442 2.78711C64.5756 2.40267 64.9381 2.11262 65.3665 1.96922C66.2365 1.82394 66.9978 0.0697928 67.9874 1.66252C68.9771 3.25524 67.0793 2.93239 66.5628 3.52428C65.796 4.3906 64.1647 4.8372 64.8009 6.3815C65.4372 7.9258 65.6927 9.52928 68.2702 9.51314C71.678 9.46661 75.0308 10.365 77.9493 12.1067C81.636 14.3236 82.7671 17.1808 81.5762 21.3779C81.337 22.2173 81.7176 22.9275 81.9242 23.6539C83.6643 29.745 85.4696 35.8146 87.2205 41.9057C88.2591 45.527 87.8241 46.5117 84.4147 48.2174C77.5578 51.6558 70.1462 52.4145 62.6259 52.4952ZM54.5237 27.3129C54.5829 27.5172 54.7087 27.6964 54.8815 27.8226C55.0543 27.9487 55.2644 28.0148 55.4791 28.0105C55.6938 28.0062 55.901 27.9318 56.0685 27.7988C56.236 27.6658 56.3544 27.4817 56.4052 27.2752C56.4813 26.9685 56.5302 26.6564 56.6009 26.3497C56.7778 25.1264 57.2395 23.9604 57.9495 22.9437C59.5808 20.8936 61.2121 20.9366 62.5878 23.1589C63.7188 24.9884 64.0669 27.0977 64.5834 29.137C65.1 31.1763 65.671 33.0865 66.9543 34.6793C67.7047 35.6048 68.8629 36.7939 70.0755 36.0944C70.989 35.5563 70.4561 34.1788 70.0755 33.1726C69.5861 31.9512 69.1729 30.6974 68.6563 29.4868C67.9478 27.8637 67.6474 26.095 67.7808 24.3319C67.7899 23.528 68.0587 22.7481 68.5479 22.1062C69.0371 21.4643 69.721 20.9941 70.4996 20.7644C72.0603 20.2264 73.2185 20.9851 74.2081 22.1527L75.1326 23.2611C75.2584 23.4168 75.4301 23.5297 75.6239 23.5842C75.8176 23.6387 76.0237 23.632 76.2134 23.5651C76.4032 23.4982 76.5671 23.3744 76.6823 23.2109C76.7975 23.0474 76.8584 22.8524 76.8563 22.6531C76.8563 21.9159 76.8563 21.2218 76.8563 20.5008C76.9107 18.7413 77.846 18.3485 79.0858 18.3861C79.244 18.3892 79.4006 18.3539 79.5419 18.2832C79.6831 18.2125 79.8047 18.1086 79.8959 17.9806C79.9871 17.8526 80.0453 17.7044 80.0652 17.5491C80.0851 17.3937 80.0662 17.2358 80.0102 17.0893C79.0477 14.6411 77.0086 13.3228 74.5725 12.6071C72.4626 11.9776 70.2223 11.8377 68.0472 11.4018C66.6171 11.1166 65.6438 11.4287 64.5726 12.591C62.3975 14.9478 59.4176 14.8563 57.1175 12.521C56.2583 11.6493 55.5406 11.7569 54.5237 11.9829C51.9789 12.6125 49.4177 13.1882 46.8294 13.5972C46.185 13.7102 45.5651 13.9322 44.9969 14.2536C44.7539 14.3428 44.5566 14.5239 44.4486 14.757C44.3405 14.9901 44.3304 15.2562 44.4205 15.4966C44.5106 15.7371 44.6936 15.9323 44.9292 16.0392C45.1647 16.1462 45.4336 16.1562 45.6766 16.067H45.7473C46.427 15.8894 47.172 15.389 47.7484 15.9002C48.3248 16.4114 47.8027 17.1808 47.5907 17.8319C47.1774 19.0964 46.5629 20.3071 46.0953 21.5985C46.0098 21.8183 46.0092 22.0616 46.0936 22.2819C46.178 22.5021 46.3415 22.6839 46.5527 22.7924C46.764 22.901 47.0083 22.9286 47.2389 22.8702C47.4695 22.8117 47.6702 22.6712 47.8027 22.4755C47.9583 22.2469 48.1409 22.0374 48.3465 21.8514C49.6516 20.716 51.1197 20.0865 52.7456 20.5869C54.3715 21.0873 54.2681 22.7392 54.3769 24.149C54.4585 25.166 54.2138 26.2906 54.5237 27.3129ZM59.9288 12.2466H60.0756C62.354 12.2089 63.3382 11.1704 63.4143 9.48086C63.4959 7.60833 62.3594 6.35998 60.5269 6.35998C58.6944 6.35998 57.5471 7.52224 57.6123 9.43781C57.6721 11.1651 58.6672 12.1121 59.9288 12.2466Z" fill="#2B3333"/>
</svg>
