<svg width="20" height="20" viewBox="0 0 20 20" fill="none" xmlns="http://www.w3.org/2000/svg">
<path d="M12.8225 7.17614L9.634 3.98535L2.2832 11.3359L5.47173 14.5242L8.66264 17.715L16.0134 10.3645L12.8225 7.17614Z" fill="#D9D9D9" stroke="#1D1D1B" stroke-linecap="round" stroke-linejoin="round"/>
<path d="M3.68353 18.5514L8.66202 17.7161L5.47111 14.5253L2.28258 11.3369L1.44727 16.3152L3.68353 18.5514Z" fill="#D9D9D9" stroke="#1D1D1B" stroke-linecap="round" stroke-linejoin="round"/>
<path d="M1 18.9993L3.68495 18.5506L1.44869 16.3145L1 18.9993Z" fill="#D9D9D9" stroke="#1D1D1B" stroke-linecap="round" stroke-linejoin="round"/>
<path d="M5.5 14.4997L12.6999 7.2998" stroke="#1D1D1B" stroke-linecap="round" stroke-linejoin="round"/>
<path d="M16.0134 10.3652L18.6626 7.71611C18.7694 7.60969 18.8541 7.48323 18.912 7.34399C18.9698 7.20474 18.9995 7.05546 18.9995 6.90469C18.9995 6.75392 18.9698 6.60464 18.912 6.4654C18.8541 6.32616 18.7694 6.1997 18.6626 6.09327L13.9061 1.33693C13.7996 1.23013 13.6732 1.1454 13.5339 1.08758C13.3947 1.02976 13.2454 1 13.0946 1C12.9438 1 12.7945 1.02976 12.6553 1.08758C12.5161 1.1454 12.3896 1.23013 12.2832 1.33693L9.64355 3.98358L16.0134 10.3652Z" fill="#D9D9D9" stroke="#1D1D1B" stroke-linecap="round" stroke-linejoin="round"/>
<path d="M16.4363 11.3262C16.2125 11.5499 15.9091 11.6756 15.5926 11.6756C15.2762 11.6756 14.9727 11.5499 14.749 11.3262L8.67263 5.2501C8.44892 5.02633 8.32324 4.72287 8.32324 4.40646C8.32324 4.09005 8.44892 3.78659 8.67263 3.56282L9.01153 3.22632C9.23531 3.00262 9.53877 2.87695 9.8552 2.87695C10.1716 2.87695 10.4751 3.00262 10.6989 3.22632L16.7728 9.30003C16.9965 9.5238 17.1222 9.82726 17.1222 10.1437C17.1222 10.4601 16.9965 10.7635 16.7728 10.9873L16.4363 11.3262Z" fill="#D9D9D9" stroke="#1D1D1B" stroke-linecap="round" stroke-linejoin="round"/>
</svg>
