<svg width="14" height="4" viewBox="0 0 14 4" fill="none" xmlns="http://www.w3.org/2000/svg">
<path d="M3.5 2.02148C3.5 1.67537 3.39736 1.33702 3.20507 1.04924C3.01278 0.761451 2.73947 0.537149 2.4197 0.404696C2.09993 0.272243 1.74806 0.237587 1.40859 0.305111C1.06913 0.372635 0.757306 0.539306 0.512564 0.784048C0.267822 1.02879 0.101151 1.34061 0.0336265 1.68008C-0.0338976 2.01954 0.000758254 2.37141 0.133212 2.69118C0.265665 3.01095 0.489967 3.28426 0.777753 3.47656C1.06554 3.66885 1.40388 3.77148 1.75 3.77148C2.21413 3.77148 2.65925 3.58711 2.98744 3.25892C3.31563 2.93073 3.5 2.48561 3.5 2.02148Z" fill="#1D1D1B"/>
<path d="M8.75 2.02148C8.75 1.67537 8.64736 1.33702 8.45507 1.04924C8.26278 0.761451 7.98947 0.537149 7.6697 0.404696C7.34993 0.272243 6.99806 0.237587 6.65859 0.305111C6.31913 0.372635 6.00731 0.539306 5.76256 0.784048C5.51782 1.02879 5.35115 1.34061 5.28363 1.68008C5.2161 2.01954 5.25076 2.37141 5.38321 2.69118C5.51566 3.01095 5.73997 3.28426 6.02775 3.47656C6.31554 3.66885 6.65388 3.77148 7 3.77148C7.46413 3.77148 7.90925 3.58711 8.23744 3.25892C8.56563 2.93073 8.75 2.48561 8.75 2.02148Z" fill="#1D1D1B"/>
<path d="M14 2.02148C14 1.67537 13.8974 1.33702 13.7051 1.04924C13.5128 0.761451 13.2395 0.537149 12.9197 0.404696C12.5999 0.272243 12.2481 0.237587 11.9086 0.305111C11.5691 0.372635 11.2573 0.539306 11.0126 0.784048C10.7678 1.02879 10.6012 1.34061 10.5336 1.68008C10.4661 2.01954 10.5008 2.37141 10.6332 2.69118C10.7657 3.01095 10.99 3.28426 11.2778 3.47656C11.5655 3.66885 11.9039 3.77148 12.25 3.77148C12.7141 3.77148 13.1592 3.58711 13.4874 3.25892C13.8156 2.93073 14 2.48561 14 2.02148Z" fill="#1D1D1B"/>
</svg>
