<svg width="28" height="27" viewBox="0 0 28 27" fill="none" xmlns="http://www.w3.org/2000/svg">
<path d="M24.432 18.5668C25.6478 16.2452 26.0702 13.5895 25.6346 11.0053C25.199 8.42111 23.9294 6.05056 22.0198 4.2558C20.1101 2.46104 17.6655 1.34076 15.0593 1.0661C12.4531 0.791443 9.82858 1.37751 7.58678 2.73477C5.34499 4.09203 3.60914 6.14585 2.64442 8.58247C1.6797 11.0191 1.53916 13.7045 2.24427 16.2285C2.94938 18.7526 4.46137 20.9764 6.54924 22.5602C8.63712 24.144 11.1861 25.0009 13.8067 24.9997C15.6722 24.9998 17.5113 24.5595 19.1744 23.7145L25.7997 24.9997L24.432 18.5668Z" stroke="#407070" stroke-width="2" stroke-miterlimit="10"/>
<path fill-rule="evenodd" clip-rule="evenodd" d="M8.47061 11.1218C8.44035 10.5808 8.63796 9.42025 9.77355 9.35875C10.8883 9.29546 11.2968 10.5532 11.2316 11.2814C11.1692 11.9838 10.7333 12.7842 9.83595 12.7967C8.93864 12.8092 8.52356 11.9152 8.47061 11.1218Z" fill="#1D1D1B"/>
<path fill-rule="evenodd" clip-rule="evenodd" d="M16.3726 10.7697C16.3386 10.2278 16.5372 9.06724 17.6727 9.00217C18.7866 8.94067 19.196 10.1984 19.1308 10.9266C19.0684 11.629 18.6325 12.4294 17.7352 12.4419C16.8378 12.4544 16.4228 11.563 16.3726 10.7697Z" fill="#1D1D1B"/>
<path d="M14.3645 17.7604C11.4192 17.7604 11.1431 15.1389 11.1402 15.1122C11.135 15.0749 11.1379 15.0369 11.1486 15.0007C11.1594 14.9644 11.1778 14.9306 11.2028 14.9012C11.2277 14.8719 11.2588 14.8476 11.294 14.8298C11.3292 14.812 11.3678 14.8012 11.4076 14.7979C11.4474 14.7945 11.4875 14.7989 11.5254 14.8105C11.5634 14.8222 11.5985 14.841 11.6285 14.8658C11.6586 14.8906 11.683 14.9209 11.7003 14.9548C11.7176 14.9887 11.7275 15.0256 11.7293 15.0632C11.7388 15.1603 11.9836 17.3228 14.5858 17.1971C15.3734 17.1596 15.9814 16.9172 16.3936 16.4778C17.0914 15.7326 17.0177 14.6469 17.0167 14.6353C17.0108 14.5617 17.0362 14.4889 17.0873 14.4329C17.1383 14.3769 17.2109 14.3423 17.289 14.3367C17.3671 14.3312 17.4444 14.3551 17.5038 14.4032C17.5632 14.4514 17.5999 14.5198 17.6058 14.5934C17.6058 14.6469 17.7003 15.918 16.8399 16.8423C16.3189 17.4012 15.5691 17.7078 14.616 17.7542C14.529 17.7577 14.4458 17.7604 14.3645 17.7604Z" fill="#1D1D1B"/>
</svg>
