<svg width="26" height="26" viewBox="0 0 26 26" fill="none" xmlns="http://www.w3.org/2000/svg">
<path d="M23.6303 18.5668C24.8461 16.2452 25.2684 13.5895 24.8328 11.0053C24.3972 8.42111 23.1276 6.05056 21.218 4.2558C19.3084 2.46104 16.8637 1.34076 14.2575 1.0661C11.6513 0.791443 9.02682 1.37751 6.78503 2.73477C4.54323 4.09203 2.80738 6.14585 1.84266 8.58247C0.877944 11.0191 0.737404 13.7045 1.44251 16.2285C2.14762 18.7526 3.65961 20.9764 5.74748 22.5602C7.83536 24.144 10.3843 25.0009 13.005 24.9997C14.8704 24.9998 16.7095 24.5595 18.3726 23.7145L24.998 24.9997L23.6303 18.5668Z" stroke="#1D1D1B" stroke-miterlimit="10"/>
<path fill-rule="evenodd" clip-rule="evenodd" d="M7.66885 11.1218C7.63859 10.5808 7.83621 9.42025 8.97179 9.35875C10.0866 9.29546 10.495 10.5532 10.4298 11.2814C10.3674 11.9838 9.93151 12.7842 9.0342 12.7967C8.13689 12.8092 7.7218 11.9152 7.66885 11.1218Z" fill="black"/>
<path fill-rule="evenodd" clip-rule="evenodd" d="M15.5709 10.7697C15.5368 10.2278 15.7354 9.06724 16.871 9.00217C17.9848 8.94067 18.3942 10.1984 18.329 10.9266C18.2666 11.629 17.8307 12.4294 16.9334 12.4419C16.0361 12.4544 15.621 11.563 15.5709 10.7697Z" fill="black"/>
<path d="M10.9774 15.0595C10.9751 15.0152 10.9634 14.9718 10.9431 14.932C10.9226 14.8919 10.8938 14.8563 10.8586 14.8272C10.8234 14.7982 10.7825 14.7763 10.7384 14.7627C10.6943 14.7492 10.6478 14.7442 10.6017 14.748C10.5556 14.7519 10.5107 14.7645 10.4697 14.7852C10.4287 14.8059 10.3923 14.8343 10.3629 14.8688C10.3335 14.9034 10.3117 14.9434 10.2989 14.9865C10.2862 15.0293 10.2828 15.0741 10.2888 15.1183C10.2921 15.149 10.3664 15.8129 10.8055 16.474C11.2516 17.1455 12.072 17.8104 13.5627 17.8104C13.6451 17.8104 13.7291 17.8077 13.8163 17.8041L13.8167 17.8041C14.7793 17.7573 15.5427 17.4471 16.0747 16.8764L16.0747 16.8764C16.5134 16.4051 16.7078 15.8464 16.7929 15.4007C16.8354 15.1776 16.8507 14.9822 16.8553 14.839C16.8577 14.7674 16.8573 14.7089 16.8564 14.6664C16.8559 14.6452 16.8553 14.6281 16.8548 14.6154L16.8542 14.6001L16.8541 14.5954L16.854 14.5939C16.854 14.5936 16.854 14.5934 16.854 14.5934H16.8542L16.8539 14.5894C16.8468 14.5016 16.8031 14.4208 16.7335 14.3644C16.664 14.3081 16.5742 14.2804 16.4837 14.2869C16.3933 14.2933 16.3086 14.3333 16.2486 14.3992C16.1884 14.4651 16.1581 14.5515 16.1651 14.6393L16.1651 14.6394L16.1651 14.6394C16.1652 14.6399 16.1655 14.6441 16.1658 14.6521C16.1662 14.6605 16.1667 14.6727 16.1671 14.6884C16.1678 14.7198 16.168 14.7651 16.1662 14.8216C16.1624 14.9347 16.1501 15.0922 16.1163 15.2722C16.0486 15.6329 15.8954 16.0804 15.5554 16.4436C15.1545 16.8709 14.5603 17.1101 13.7816 17.1471L13.7816 17.1471C12.4973 17.2092 11.8018 16.7077 11.4241 16.1844C11.0469 15.6619 10.9827 15.1119 10.9774 15.0595ZM10.9774 15.0595C10.9774 15.0599 10.9775 15.0604 10.9775 15.0608L10.9275 15.0632L10.9773 15.0583C10.9773 15.0587 10.9774 15.0591 10.9774 15.0595Z" fill="black" stroke="#1D1D1B" stroke-width="0.1"/>
</svg>
