<svg width="30" height="26" viewBox="0 0 30 26" fill="none" xmlns="http://www.w3.org/2000/svg">
<path d="M15.0735 25C15.3889 25.3879 15.389 25.3879 15.3891 25.3878L15.3895 25.3875L15.391 25.3862L15.3969 25.3815L15.4198 25.3628L15.5089 25.2899C15.587 25.226 15.7016 25.1319 15.8482 25.011C16.1413 24.7692 16.5622 24.4201 17.0741 23.9901C18.0977 23.1304 19.486 21.9466 20.9438 20.6514C22.401 19.3568 23.9315 17.9474 25.2381 16.6368C26.5354 15.3357 27.6431 14.1015 28.2269 13.1629C29.4058 11.2677 29.9129 8.14861 29.1103 5.4864C28.7053 4.14287 27.9599 2.89351 26.7753 1.98103C25.5906 1.06844 24.0035 0.521342 21.9652 0.518992C20.4196 0.439607 18.8869 0.837708 17.5734 1.65965C16.5451 2.30311 15.6899 3.18203 15.0742 4.21834C14.4459 3.15744 13.567 2.26122 12.5089 1.61291C11.1652 0.789708 9.5997 0.407362 8.02982 0.518999C6.03182 0.522213 4.45918 1.05306 3.27517 1.94376C2.08969 2.83555 1.32865 4.06179 0.909812 5.39475C0.0790477 8.03864 0.571249 11.1723 1.84715 13.2131C2.47934 14.2242 3.61475 15.4911 4.93036 16.8038C6.2539 18.1244 7.78831 19.519 9.24297 20.7895C10.6984 22.0605 12.078 23.2108 13.0935 24.0432C13.6014 24.4594 14.0184 24.7964 14.3087 25.0294C14.4539 25.146 14.5674 25.2365 14.6447 25.298L14.7329 25.3682L14.7557 25.3862L14.7615 25.3908L14.763 25.392L14.7634 25.3923C14.7635 25.3924 14.7636 25.3924 15.0735 25ZM15.0735 25L14.7636 25.3924C14.9474 25.5375 15.2072 25.5357 15.3889 25.3879L15.0735 25Z" stroke="#1D1D1B" stroke-linecap="round" stroke-linejoin="round"/>
</svg>
