<svg width="28" height="24" viewBox="0 0 28 24" fill="none" xmlns="http://www.w3.org/2000/svg">
<path d="M28 7.25788C28.004 5.49528 27.3761 3.79169 26.234 2.46652C25.0918 1.14136 23.5139 0.285609 21.796 0.0597241C20.0781 -0.166161 18.3382 0.253329 16.9025 1.23954C15.4669 2.22576 14.434 3.71097 13.9976 5.41673C13.7204 4.34507 13.2053 3.35244 12.4917 2.51528C11.7782 1.67812 10.8854 1.01878 9.88198 0.588038C8.8786 0.157292 7.79144 -0.0333651 6.70425 0.0307504C5.61705 0.0948659 4.55881 0.412043 3.61105 0.957854C2.66329 1.50367 1.85128 2.26355 1.23757 3.17897C0.623854 4.0944 0.224812 5.14095 0.0711731 6.23802C-0.082466 7.33508 0.0133975 8.4534 0.351381 9.50683C0.689364 10.5603 1.26045 11.5207 2.02065 12.3142V12.3485L2.08141 12.4104L13.498 24L25.502 12.7607C26.2854 12.0825 26.9146 11.2391 27.3459 10.289C27.7773 9.33878 28.0004 8.30454 28 7.25788Z" fill="#407070"/>
</svg>
