<svg width="26" height="24" viewBox="0 0 26 24" fill="none" xmlns="http://www.w3.org/2000/svg">
<path d="M18.6764 6.8526C19.1864 3.99701 17.0583 1.30551 13.9231 0.840956C10.788 0.376406 7.83294 2.31473 7.32291 5.17032C6.81288 8.02591 8.94097 10.7174 12.0761 11.182C15.2113 11.6465 18.1663 9.70819 18.6764 6.8526Z" stroke="#1D1D1B" stroke-miterlimit="10"/>
<path d="M1 24.0004C0.999062 22.6842 1.28299 21.3807 1.83556 20.1645C2.38813 18.9484 3.19849 17.8433 4.22031 16.9126C5.24212 15.9819 6.45534 15.2438 7.79059 14.7405C9.12583 14.2373 10.5569 13.9786 12.002 13.9795H13.9978C16.9157 13.9795 19.7141 15.0353 21.7773 16.9145C23.8406 18.7938 24.9997 21.3427 24.9997 24.0004" stroke="#1D1D1B" stroke-miterlimit="10"/>
</svg>
