<svg width="24" height="24" viewBox="0 0 24 24" fill="none" xmlns="http://www.w3.org/2000/svg">
<path d="M17.6764 6.8526C18.1864 3.99701 16.0583 1.30551 12.9231 0.840956C9.78797 0.376406 6.83294 2.31473 6.32291 5.17032C5.81288 8.02591 7.94097 10.7174 11.0761 11.182C14.2113 11.6465 17.1663 9.70819 17.6764 6.8526Z" fill="#407070"/>
<path d="M2.3288e-06 24.0004C-0.000938162 22.6842 0.282994 21.3807 0.835562 20.1645C1.38813 18.9484 2.19849 17.8433 3.22031 16.9126C4.24212 15.9819 5.45534 15.2438 6.79059 14.7405C8.12583 14.2373 9.55691 13.9786 11.002 13.9795H12.9978C15.9157 13.9795 18.7141 15.0353 20.7773 16.9145C22.8406 18.7938 23.9997 21.3427 23.9997 24.0004" fill="#407070"/>
</svg>
