<svg width="16" height="16" viewBox="0 0 16 16" fill="none" xmlns="http://www.w3.org/2000/svg">
<path d="M14.2011 11.2474C14.9103 9.89316 15.1567 8.34395 14.9026 6.83649C14.6485 5.32903 13.9079 3.94619 12.794 2.89924C11.68 1.85228 10.2539 1.19878 8.73364 1.03856C7.21333 0.87834 5.68236 1.22022 4.37463 2.01196C3.06691 2.8037 2.05432 4.00178 1.49156 5.42316C0.9288 6.84453 0.846817 8.41106 1.25813 9.88341C1.66945 11.3558 2.55145 12.653 3.7694 13.5769C4.98734 14.5008 6.47425 15.0006 8.00298 15C9.09116 15.0001 10.164 14.7432 11.1341 14.2503L14.999 15L14.2011 11.2474Z" stroke="#D9D9D9" stroke-width="0.5" stroke-miterlimit="10"/>
</svg>
